<svg width="18" height="20" viewBox="0 0 18 20" fill="none" xmlns="http://www.w3.org/2000/svg">
<path d="M12.0002 15V16C12.0002 17.6569 10.6571 19 9.00024 19C7.34339 19 6.00024 17.6569 6.00024 16V15M12.0002 15H6.00024M12.0002 15H15.5907C15.9733 15 16.1654 15 16.3203 14.9478C16.6162 14.848 16.8477 14.6156 16.9475 14.3198C17 14.1643 17 13.9715 17 13.5859C17 13.4172 16.9998 13.3329 16.9866 13.2524C16.9616 13.1004 16.9026 12.9563 16.8128 12.8312C16.7653 12.7651 16.705 12.7048 16.5861 12.5858L16.1965 12.1963C16.0709 12.0706 16.0002 11.9001 16.0002 11.7224V8C16.0002 4.134 12.8662 0.999991 9.00024 1C5.13426 1.00001 2.00024 4.13401 2.00024 8V11.7224C2.00024 11.9002 1.92949 12.0706 1.80381 12.1963L1.41431 12.5858C1.295 12.7051 1.23529 12.765 1.18774 12.8312C1.0979 12.9564 1.03839 13.1004 1.01344 13.2524C1.00024 13.3329 1.00024 13.4172 1.00024 13.586C1.00024 13.9715 1.00024 14.1642 1.0527 14.3197C1.15249 14.6156 1.38504 14.848 1.68091 14.9478C1.8358 15 2.02726 15 2.4098 15H6.00024" stroke="black" stroke-width="2" stroke-linecap="round" stroke-linejoin="round"/>
</svg>
