<svg width="14" height="12" viewBox="0 0 14 12" fill="none" xmlns="http://www.w3.org/2000/svg">
<path d="M10.3333 11C10.3333 9.89543 8.84095 9 7 9C5.15905 9 3.66667 9.89543 3.66667 11M13 9.00025C13 8.18012 12.1773 7.47529 11 7.16667M1 9.00025C1 8.18012 1.82273 7.47529 3 7.16667M11 4.49074C11.4092 4.12452 11.6667 3.59233 11.6667 3C11.6667 1.89543 10.7712 1 9.66667 1C9.15443 1 8.68717 1.19257 8.33333 1.50926M3 4.49074C2.59083 4.12452 2.33333 3.59233 2.33333 3C2.33333 1.89543 3.22876 1 4.33333 1C4.84557 1 5.31283 1.19257 5.66667 1.50926M7 7C5.89543 7 5 6.10457 5 5C5 3.89543 5.89543 3 7 3C8.10457 3 9 3.89543 9 5C9 6.10457 8.10457 7 7 7Z" stroke="black" stroke-linecap="round" stroke-linejoin="round"/>
</svg>
