<svg width="36" height="36" viewBox="0 0 36 36" fill="none" xmlns="http://www.w3.org/2000/svg">
<rect width="36" height="36" rx="18" fill="black" fill-opacity="0.2"/>
<path d="M10 26H26M10 26V21.8938L18 13.6813M10 26L14 26L22 17.7875M18 13.6813L20.8686 10.7365L20.8704 10.7347C21.2652 10.3293 21.463 10.1263 21.691 10.0502C21.8919 9.98325 22.1082 9.98325 22.3091 10.0502C22.5369 10.1262 22.7345 10.3291 23.1288 10.7338L24.8686 12.5199C25.2646 12.9264 25.4627 13.1297 25.5369 13.3641C25.6022 13.5703 25.6021 13.7924 25.5369 13.9986C25.4628 14.2328 25.265 14.4359 24.8695 14.8418L24.8686 14.8427L22 17.7875M18 13.6813L22 17.7875" stroke="white" stroke-width="1.5" stroke-linecap="round" stroke-linejoin="round"/>
</svg>
