<svg width="24" height="24" viewBox="0 0 24 24" fill="none" xmlns="http://www.w3.org/2000/svg">
<path fill-rule="evenodd" clip-rule="evenodd" d="M12 2.81824C6.90131 2.81824 2.81818 7.06731 2.81818 12.246V18.3189C2.81818 20.0997 4.67217 21.3587 6.32085 20.5096C6.75162 20.2878 7.26292 20.3194 7.66711 20.597C8.8028 21.3768 10.2881 21.3768 11.4238 20.597L11.7123 20.3988C11.8883 20.278 12.1117 20.278 12.2877 20.3988L12.5762 20.597C13.7119 21.3768 15.1972 21.3768 16.3329 20.597C16.7371 20.3194 17.2484 20.2878 17.6791 20.5096C19.3278 21.3587 21.1818 20.0997 21.1818 18.3189V12.246C21.1818 7.06731 17.0987 2.81824 12 2.81824ZM4.81818 12.246C4.81818 8.11563 8.0613 4.81824 12 4.81824C15.9387 4.81824 19.1818 8.11563 19.1818 12.246V18.3189C19.1818 18.7019 18.8251 18.8502 18.5949 18.7316C17.507 18.1713 16.2092 18.2557 15.2007 18.9483C14.7471 19.2597 14.162 19.2597 13.7084 18.9483L13.4198 18.7501C12.5618 18.1609 11.4382 18.1609 10.5802 18.7501L10.2916 18.9483C9.83803 19.2597 9.25286 19.2597 8.79928 18.9483C7.79075 18.2557 6.49297 18.1713 5.4051 18.7316C5.17488 18.8502 4.81818 18.7019 4.81818 18.3189V12.246ZM10.7273 10.5455C10.7273 11.0978 10.2796 11.5455 9.72727 11.5455C9.17498 11.5455 8.72727 11.0978 8.72727 10.5455C8.72727 9.99323 9.17498 9.54551 9.72727 9.54551C10.2796 9.54551 10.7273 9.99323 10.7273 10.5455ZM15.6364 10.5455C15.6364 11.0978 15.1886 11.5455 14.6364 11.5455C14.0841 11.5455 13.6364 11.0978 13.6364 10.5455C13.6364 9.99323 14.0841 9.54551 14.6364 9.54551C15.1886 9.54551 15.6364 9.99323 15.6364 10.5455Z" fill="#F49E15"/>
</svg>
