<svg width="20" height="20" viewBox="0 0 20 20" fill="none" xmlns="http://www.w3.org/2000/svg">
<path d="M1.07309 8.4283L2.03927 8.68617L2.03927 8.68616L1.07309 8.4283ZM1.38892 7.74839L2.2107 8.31819L2.21071 8.31818L1.38892 7.74839ZM2.22937 6.93244L1.57879 6.173H1.57879L2.22937 6.93244ZM7.63116 2.30489L6.98058 1.54546L6.98057 1.54546L7.63116 2.30489ZM9.36147 1.09044L9.63958 2.05098L9.36147 1.09044ZM10.6383 1.09044L10.9164 0.129886L10.9164 0.129886L10.6383 1.09044ZM12.3708 2.30642L11.7203 3.06585L12.3708 2.30642ZM17.7709 6.93244L18.4214 6.173L18.4214 6.173L17.7709 6.93244ZM18.6114 7.74839L19.4332 7.1786V7.1786L18.6114 7.74839ZM18.9264 8.4283L19.8926 8.17043V8.17043L18.9264 8.4283ZM18.755 17.7978L19.6421 18.2594H19.6421L18.755 17.7978ZM17.7708 18.7601L18.2172 19.655L18.2172 19.655L17.7708 18.7601ZM13 19H12C12 19.5523 12.4477 20 13 20V19ZM7 19V20C7.55228 20 8 19.5523 8 19H7ZM2.22827 18.7601L1.78188 19.655L1.78188 19.655L2.22827 18.7601ZM1.24524 17.7978L0.358173 18.2594H0.358174L1.24524 17.7978ZM0 9.58512V15.4755H2V9.58512H0ZM0.106913 8.17043C-0.00789762 8.6006 0 9.04996 0 9.58512H2C2 8.9432 2.0079 8.80372 2.03927 8.68617L0.106913 8.17043ZM0.567127 7.1786C0.358806 7.47905 0.202059 7.81393 0.106913 8.17043L2.03927 8.68616C2.07367 8.55727 2.13123 8.43281 2.2107 8.31819L0.567127 7.1786ZM1.57879 6.173C1.1651 6.5274 0.819837 6.81413 0.567127 7.1786L2.21071 8.31818C2.28276 8.21427 2.38885 8.11259 2.87995 7.69187L1.57879 6.173ZM6.98057 1.54546L1.57879 6.173L2.87995 7.69187L8.28174 3.06432L6.98057 1.54546ZM9.08336 0.129886C8.69071 0.243572 8.36012 0.440478 8.04301 0.672626C7.73628 0.897177 7.38835 1.19613 6.98058 1.54546L8.28174 3.06433C8.71264 2.69519 8.99373 2.45528 9.22441 2.28641C9.44472 2.12513 9.55995 2.07404 9.63958 2.05098L9.08336 0.129886ZM10.9164 0.129886C10.3183 -0.0432948 9.6815 -0.0432951 9.08336 0.129886L9.63958 2.05098C9.87437 1.98301 10.1254 1.98301 10.3602 2.05098L10.9164 0.129886ZM13.0214 1.54699C12.613 1.19707 12.2646 0.897779 11.9575 0.672985C11.64 0.440618 11.3092 0.243617 10.9164 0.129886L10.3602 2.05098C10.44 2.0741 10.5555 2.12531 10.7762 2.28684C11.0072 2.45594 11.2888 2.69622 11.7203 3.06585L13.0214 1.54699ZM18.4214 6.173L13.0214 1.54699L11.7203 3.06585L17.1203 7.69187L18.4214 6.173ZM19.4332 7.1786C19.1804 6.81409 18.835 6.52729 18.4214 6.173L17.1203 7.69187C17.6115 8.11269 17.7176 8.2143 17.7896 8.31818L19.4332 7.1786ZM19.8926 8.17043C19.7979 7.81586 19.6426 7.48071 19.4332 7.1786L17.7896 8.31818C17.8679 8.43116 17.9253 8.55534 17.9602 8.68616L19.8926 8.17043ZM20 9.58512C20 9.04844 20.0073 8.60024 19.8926 8.17043L17.9602 8.68616C17.9917 8.80408 18 8.94474 18 9.58512H20ZM20 15.4794V9.58512H18V15.4794H20ZM19.6421 18.2594C19.8511 17.8577 19.93 17.4373 19.9659 17.007C20.0008 16.5889 20 16.0782 20 15.4794H18C18 16.1119 17.9992 16.525 17.9728 16.8406C17.9475 17.1439 17.9039 17.267 17.8679 17.3361L19.6421 18.2594ZM18.2172 19.655C18.8258 19.3514 19.327 18.8648 19.6421 18.2594L17.8679 17.3361C17.7516 17.5597 17.5626 17.7465 17.3244 17.8653L18.2172 19.655ZM15.4035 20C16.0161 20 16.5346 20.0007 16.9583 19.9668C17.3931 19.932 17.8143 19.856 18.2172 19.655L17.3244 17.8653C17.2465 17.9042 17.1129 17.9481 16.7987 17.9732C16.4733 17.9993 16.0485 18 15.4035 18V20ZM13 20H15.4035V18H13V20ZM12 15V19H14V15H12ZM10 13C11.1046 13 12 13.8954 12 15H14C14 12.7909 12.2091 11 10 11V13ZM8 15C8 13.8954 8.89543 13 10 13V11C7.79086 11 6 12.7909 6 15H8ZM8 19V15H6V19H8ZM4.59652 20H7V18H4.59652V20ZM1.78188 19.655C2.18489 19.856 2.60644 19.932 3.04134 19.9668C3.46522 20.0007 3.98384 20 4.59652 20V18C3.95155 18 3.52646 17.9993 3.20084 17.9732C2.88624 17.948 2.75248 17.9041 2.67466 17.8653L1.78188 19.655ZM0.358174 18.2594C0.6727 18.8638 1.17218 19.3508 1.78188 19.655L2.67466 17.8653C2.43763 17.7471 2.2492 17.5607 2.1323 17.3361L0.358174 18.2594ZM0 15.4755C0 16.0755 -0.000810504 16.5871 0.0341163 17.0057C0.070065 17.4366 0.148969 17.8574 0.358173 18.2594L2.1323 17.3361C2.09627 17.2669 2.05255 17.1434 2.02719 16.8394C2.00081 16.5232 2 16.1092 2 15.4755H0Z" fill="#F49E15"/>
</svg>
