<svg width="24" height="24" viewBox="0 0 24 24" fill="none" xmlns="http://www.w3.org/2000/svg">
<path d="M12 2.00012C12.1112 2.39323 12.1681 2.79967 12.169 3.20815C12.1789 4.55946 11.5218 5.82831 10.412 6.60192C9.41159 7.29355 8.13093 7.44039 7 6.99198C7.05122 7.2787 7.07732 7.56896 7.078 7.8602C7.08767 9.15496 6.50689 10.3837 5.49989 11.1996C4.52265 11.9981 3.2352 12.2627 2 12.0007C2.01795 17.5146 6.47718 22.0176 12 21.9998C17.5228 21.9818 22.0178 17.514 21.9999 12.0001C21.9938 6.48877 17.5203 2.00617 12 2.00012Z" stroke="#F49E15" stroke-width="2" stroke-linecap="round" stroke-linejoin="round"/>
<path d="M3.00195 7.00006V7.00206L3 7.00201V7.00006H3.00195ZM8.00195 3V3.002L8 3.00195V3H8.00195ZM4.00195 3V3.002L4 3.00195V3H4.00195Z" stroke="#F49E15" stroke-width="2.4" stroke-linecap="round" stroke-linejoin="round"/>
<path d="M10 17.0022V17.0002M15.002 15.0002V15.0022M11.002 12.0022V12.0002H11M16.002 10.0001H16V10.0021" stroke="#F49E15" stroke-width="2.4" stroke-linecap="round" stroke-linejoin="round"/>
</svg>
