<svg width="24" height="24" viewBox="0 0 24 24" fill="none" xmlns="http://www.w3.org/2000/svg">
<path d="M7.51025 19.8018C8.83174 20.5639 10.365 21 12.0001 21C16.9707 21 21 16.9706 21 12C21 7.02944 16.9706 3 12 3C7.02944 3 3 7.02944 3 12C3 13.6351 3.43604 15.1684 4.19819 16.4899L4.20114 16.495C4.27448 16.6221 4.31146 16.6863 4.32821 16.7469C4.34401 16.804 4.3494 16.8554 4.34535 16.9146C4.34106 16.9773 4.31936 17.0424 4.27651 17.171L4.27468 17.1758L3.50586 19.4823L3.50489 19.4853C3.34268 19.9719 3.26157 20.2152 3.31938 20.3774C3.36979 20.5187 3.4812 20.6303 3.62256 20.6807C3.7848 20.7386 4.02892 20.6572 4.51625 20.4947L4.51807 20.4939L6.82759 19.7241L6.82762 19.7241C6.95731 19.6808 7.02254 19.6591 7.08559 19.6548C7.14475 19.6507 7.19578 19.6561 7.25293 19.6719C7.31434 19.6888 7.3797 19.7265 7.51025 19.8018Z" fill="#F49E15" stroke="#F49E15" stroke-width="2" stroke-linecap="round" stroke-linejoin="round"/>
<path d="M15 10L13 12L11 14L9 12" stroke="white" stroke-width="2" stroke-linecap="round" stroke-linejoin="round"/>
</svg>
