<svg width="14" height="14" viewBox="0 0 14 14" fill="none" xmlns="http://www.w3.org/2000/svg">
<path d="M5.09766 5.04908C5.21152 4.69822 5.4201 4.38597 5.70052 4.14632C5.98094 3.90667 6.32253 3.74919 6.68685 3.69139C7.05117 3.63358 7.42415 3.6776 7.76497 3.81869C8.1058 3.95977 8.40097 4.1925 8.61784 4.49089C8.83471 4.78927 8.96459 5.14171 8.99358 5.50944C9.02257 5.87717 8.94923 6.24586 8.78179 6.57454C8.61436 6.90323 8.35958 7.17899 8.04507 7.37175C7.73056 7.5645 7.36887 7.66651 7 7.66651V8.33349M7 13C3.68629 13 1 10.3137 1 7C1 3.68629 3.68629 1 7 1C10.3137 1 13 3.68629 13 7C13 10.3137 10.3137 13 7 13ZM7.0332 10.3333V10.4L6.9668 10.4001V10.3333H7.0332Z" stroke="black" stroke-linecap="round" stroke-linejoin="round"/>
</svg>
