<svg width="24" height="24" viewBox="0 0 24 24" fill="none" xmlns="http://www.w3.org/2000/svg">
<path d="M12 3.00012C12.1001 3.35392 12.1513 3.71971 12.1521 4.08735C12.161 5.30352 11.5696 6.44549 10.5708 7.14174C9.67043 7.76421 8.51784 7.89636 7.5 7.4928C7.5461 7.75084 7.56959 8.01207 7.5702 8.27419C7.5789 9.43947 7.0562 10.5453 6.1499 11.2797C5.27038 11.9983 4.11168 12.2365 3 12.0007C3.01615 16.9631 7.02946 21.0159 12 20.9998C16.9705 20.9836 21.0161 16.9626 21 12.0001C20.9944 7.03991 16.9683 3.00557 12 3.00012Z" fill="#F49E15" stroke="#F49E15" stroke-width="2" stroke-linecap="round" stroke-linejoin="round"/>
<path d="M3.00195 7.00012V7.00212L3 7.00208V7.00012H3.00195ZM8.00195 3.00012V3.00212L8 3.00208V3.00012H8.00195ZM4.00195 3.00012V3.00212L4 3.00208V3.00012H4.00195Z" stroke="#F49E15" stroke-width="2.4" stroke-linecap="round" stroke-linejoin="round"/>
<path d="M10 17.0021V17.0001M15.002 15.0001V15.0021M11.002 12.0021V12.0001H11M16.002 10.0001H16V10.0021" stroke="white" stroke-width="2.4" stroke-linecap="round" stroke-linejoin="round"/>
</svg>
