<svg width="56" height="68" viewBox="0 0 56 68" fill="none" xmlns="http://www.w3.org/2000/svg">
<path d="M28.0003 60.5388C42.8666 60.5388 54.918 48.4873 54.918 33.6211C54.918 18.7548 42.8666 6.70334 28.0003 6.70334C13.134 6.70334 1.08257 18.7548 1.08257 33.6211C1.08257 48.4873 13.134 60.5388 28.0003 60.5388Z" fill="white"/>
<path fill-rule="evenodd" clip-rule="evenodd" d="M27.9999 7.22776C13.4233 7.22776 1.60669 19.0444 1.60669 33.621C1.60669 48.1976 13.4233 60.0142 27.9999 60.0142C42.5765 60.0142 54.3932 48.1976 54.3932 33.621C54.3932 19.0444 42.5765 7.22776 27.9999 7.22776ZM0.557678 33.621C0.557678 18.4651 12.844 6.17874 27.9999 6.17874C43.1559 6.17874 55.4422 18.4651 55.4422 33.621C55.4422 48.7769 43.1559 61.0632 27.9999 61.0632C12.844 61.0632 0.557678 48.7769 0.557678 33.621Z" fill="black"/>
<path d="M19.1254 59.1646C18.9471 62.3116 21.0661 65.3538 23.2795 66.3608C26.4056 67.777 30.4758 65.5636 31.9864 60.4654C28.6924 61.0528 23.4893 60.8535 19.1359 59.1541" fill="#F49E15"/>
<path fill-rule="evenodd" clip-rule="evenodd" d="M18.3745 58.4307C18.6594 58.1315 19.1075 58.0172 19.5162 58.1768C23.6708 59.7986 28.6761 59.9898 31.801 59.4325C32.159 59.3687 32.5247 59.4948 32.7671 59.766C33.0096 60.0371 33.0943 60.4145 32.9909 60.7633C31.387 66.1766 26.8 69.1077 22.8454 67.3162L22.8439 67.3155C21.5091 66.7082 20.2796 65.5325 19.4099 64.1131C18.5352 62.6856 17.9735 60.929 18.0769 59.1051C18.0918 58.8413 18.2031 58.6057 18.3745 58.4307ZM20.2712 60.6581C20.4303 61.49 20.7567 62.2954 21.1988 63.017C21.8972 64.1569 22.8336 65.0056 23.712 65.4055C25.7381 66.3228 28.7403 65.2678 30.3932 61.726C27.4579 61.9739 23.7184 61.7156 20.2712 60.6581Z" fill="black"/>
<path d="M13.4082 55.0416C16.9829 55.0416 19.8807 52.1438 19.8807 48.5691C19.8807 44.9945 16.9829 42.0967 13.4082 42.0967C9.83363 42.0967 6.93582 44.9945 6.93582 48.5691C6.93582 52.1438 9.83363 55.0416 13.4082 55.0416Z" fill="#F3A89F"/>
<path fill-rule="evenodd" clip-rule="evenodd" d="M8.03026 5.33892C8.07705 4.76146 8.58311 4.33126 9.16057 4.37806L9.07585 5.42364C9.16057 4.37806 9.1602 4.37803 9.16057 4.37806L9.16414 4.37835L9.16966 4.37882L9.18645 4.38031C9.20017 4.38156 9.2189 4.38334 9.24238 4.38574C9.28932 4.39053 9.3553 4.39778 9.43815 4.40817C9.60373 4.42893 9.83748 4.46233 10.122 4.51388C10.6889 4.61663 11.4678 4.79335 12.3148 5.09084C13.9751 5.67398 16.0743 6.78415 17.2067 8.89257C17.4809 9.40296 17.2893 10.0389 16.7789 10.3131C16.2685 10.5872 15.6326 10.3957 15.3584 9.88528C14.5921 8.45851 13.0879 7.58604 11.6196 7.07034C10.9023 6.81841 10.2355 6.66666 9.74783 6.57829C9.50501 6.53428 9.30924 6.50646 9.17711 6.48989C9.11112 6.48162 9.0612 6.47617 9.02946 6.47294L8.99581 6.46966L8.99112 6.46923C8.41396 6.42215 7.98348 5.91619 8.03026 5.33892Z" fill="black"/>
<path fill-rule="evenodd" clip-rule="evenodd" d="M16.1814 0.00486679C16.7581 -0.0504546 17.2705 0.372213 17.3258 0.948921L18.0916 8.93193C18.1469 9.50864 17.7243 10.021 17.1476 10.0763C16.5708 10.1316 16.0585 9.70897 16.0032 9.13227L15.2374 1.14926C15.1821 0.572549 15.6047 0.0601883 16.1814 0.00486679Z" fill="black"/>
<path d="M18.2549 44.2787C19.3441 44.2787 20.227 43.3957 20.227 42.3066C20.227 41.2174 19.3441 40.3344 18.2549 40.3344C17.1657 40.3344 16.2827 41.2174 16.2827 42.3066C16.2827 43.3957 17.1657 44.2787 18.2549 44.2787Z" fill="black"/>
<path d="M43.5144 53.2793C47.089 53.2793 49.9868 50.3815 49.9868 46.8068C49.9868 43.2322 47.089 40.3344 43.5144 40.3344C39.9398 40.3344 37.042 43.2322 37.042 46.8068C37.042 50.3815 39.9398 53.2793 43.5144 53.2793Z" fill="#F3A89F"/>
<path d="M37.3157 44.0692C38.289 44.0692 39.0781 43.2802 39.0781 42.3069C39.0781 41.3336 38.289 40.5445 37.3157 40.5445C36.3424 40.5445 35.5534 41.3336 35.5534 42.3069C35.5534 43.2802 36.3424 44.0692 37.3157 44.0692Z" fill="black"/>
<path fill-rule="evenodd" clip-rule="evenodd" d="M28 7.75202C13.7131 7.75202 2.13128 19.3338 2.13128 33.6207C2.13128 47.9076 13.7131 59.4895 28 59.4895C42.2869 59.4895 53.8687 47.9076 53.8687 33.6207C53.8687 19.3338 42.2869 7.75202 28 7.75202ZM0.0332489 33.6207C0.0332489 18.1751 12.5544 5.65399 28 5.65399C43.4456 5.65399 55.9668 18.1751 55.9668 33.6207C55.9668 49.0664 43.4456 61.5875 28 61.5875C12.5544 61.5875 0.0332489 49.0664 0.0332489 33.6207Z" fill="black"/>
</svg>
