<svg width="24" height="24" viewBox="0 0 24 24" fill="none" xmlns="http://www.w3.org/2000/svg">
<path d="M20.182 18.3189V12.246C20.182 7.59147 16.5189 3.81824 12.0002 3.81824C7.48148 3.81824 3.81836 7.59147 3.81836 12.246V18.3189C3.81836 19.4008 4.92371 20.1045 5.86316 19.6206C6.62248 19.2295 7.52701 19.2875 8.23338 19.7726C9.02802 20.3183 10.0632 20.3183 10.8579 19.7726L11.1464 19.5745C11.6634 19.2194 12.3369 19.2194 12.8539 19.5745L13.1425 19.7726C13.9371 20.3183 14.9723 20.3183 15.767 19.7726C16.4733 19.2875 17.3779 19.2295 18.1372 19.6206C19.0767 20.1045 20.182 19.4008 20.182 18.3189Z" fill="#F49E15" stroke="#F49E15" stroke-width="2"/>
<path d="M15.6367 10.5455C15.6367 11.0978 15.189 11.5455 14.6367 11.5455C14.0844 11.5455 13.6367 11.0978 13.6367 10.5455C13.6367 9.99325 14.0844 9.54553 14.6367 9.54553C15.189 9.54553 15.6367 9.99325 15.6367 10.5455Z" fill="white"/>
<circle cx="9.72754" cy="10.5455" r="1" fill="white"/>
</svg>
