<svg width="81" height="25" viewBox="0 0 81 25" fill="none" xmlns="http://www.w3.org/2000/svg">
<mask id="path-1-outside-1_563_2701" maskUnits="userSpaceOnUse" x="-1" y="-1" width="83" height="27" fill="black">
<rect fill="white" x="-1" y="-1" width="83" height="27"/>
<path d="M9.63177 20.134C3.55977 20.134 0.875766 16.46 0.875766 10.542C0.875766 4.624 3.18577 0.949999 9.63177 0.949999C16.0998 0.949999 18.3878 4.624 18.3878 10.542C18.3878 16.46 15.7038 20.134 9.63177 20.134ZM8.83977 11.972C8.61977 12.28 9.30177 12.588 9.58777 12.214C10.2038 11.334 10.3578 10.146 10.3798 9.046C10.4018 8.54 9.63177 8.562 9.60977 8.914C9.54377 9.992 9.34577 10.916 8.83977 11.972ZM21.3261 12.632C20.0721 12.544 19.5001 11.598 19.5001 10.366C19.5001 9.31 20.0721 8.298 21.3261 8.408C23.7681 8.606 25.7261 8.65 28.1681 8.408C29.4441 8.276 30.0161 9.31 30.0161 10.366C30.0161 11.598 29.4441 12.544 28.1461 12.632C25.7261 12.83 23.7681 12.83 21.3261 12.632ZM37.0873 6.582C36.3613 7.33 35.8553 8.342 35.7673 9.398C35.7013 9.926 36.1633 9.992 36.2733 9.53C36.8453 6.912 38.1873 5.9 40.2113 6.054C42.0373 6.186 42.6532 8.078 42.6313 9.31C42.6313 10.476 42.3673 12.522 40.2333 12.852C39.5293 12.962 38.7153 12.654 38.0333 12.104C37.7033 11.818 37.5273 12.104 37.5273 12.478C37.4833 14.062 37.3953 15.668 37.2413 17.23C37.0653 18.88 36.1633 20.178 34.3373 20.178C32.4673 20.178 31.5433 18.88 31.4113 17.23C31.1693 14.018 31.2793 10.828 31.3233 7.616C31.3453 6.89 31.7193 6.296 32.2913 6.208C32.7533 6.12 33.3913 6.076 34.0733 6.076C35.3493 6.076 36.6913 6.274 37.0873 6.582ZM46.8243 7.066C45.3283 7.066 43.9423 5.966 43.9423 4.008C43.9423 2.182 45.3503 0.949999 46.8243 0.949999C48.4303 0.949999 49.7063 2.49 49.7063 4.074C49.7063 5.702 48.4963 7.066 46.8243 7.066ZM43.8763 18.132C43.4583 15.536 43.4583 12.654 43.8763 10.058C44.0303 9.046 44.9543 8.21 46.8243 8.21C48.6283 8.21 49.5303 9.046 49.7063 10.058C50.1463 12.654 50.1463 15.536 49.7063 18.132C49.5303 19.166 48.6283 19.98 46.8243 19.98C44.9543 19.98 44.0303 19.166 43.8763 18.132ZM57.7875 15.91C57.7435 16.372 57.7215 16.812 57.6775 17.252C57.5015 18.902 56.5995 19.98 54.7735 19.98C52.9035 19.98 51.9355 18.902 51.7595 17.252C51.6055 15.8 51.5395 14.106 51.4955 12.654V8.716C51.4955 7.132 52.5515 6.076 54.1355 6.076C55.3895 6.076 56.6655 6.428 57.1275 7.418C55.9835 8.804 55.4115 10.41 55.5875 12.126C55.6535 12.654 56.2475 12.61 56.2255 12.17C56.0495 9.926 57.2815 7.572 58.7115 6.714C59.3495 6.34 60.0535 6.076 60.7795 6.076C61.9895 6.076 63.2435 6.472 64.0575 7.374C65.2895 8.716 65.3775 10.322 65.3555 12.082C65.3335 13.732 65.1795 15.712 64.8275 17.252C64.4535 18.902 63.6175 19.98 61.7035 19.98C59.7675 19.98 58.7775 18.902 58.5795 17.252C58.5355 16.878 58.4915 16.482 58.4695 16.086C58.4695 15.536 57.9415 15.47 57.7875 15.91ZM75.7536 6.076L76.8976 5.02C77.7996 4.184 78.9436 4.36 79.7576 5.328C80.5276 6.274 80.5276 7.33 79.7136 8.232L79.4716 8.518C79.4496 8.782 79.9556 9.068 79.9556 10.784C79.9556 12.808 79.2296 14.876 77.2936 15.844C76.3036 15.448 75.1376 15.162 73.7076 15.14C73.1576 15.14 73.1136 15.756 73.6636 15.756C78.1956 15.976 80.2196 18.484 79.7356 20.772C79.3176 22.708 77.0296 24.49 72.8936 24.49C68.5156 24.49 66.5796 22.554 66.2276 20.398C65.9416 18.528 66.8216 16.46 68.4276 15.25C66.8656 14.304 66.2056 12.258 66.6456 10.322C67.1516 8.012 69.2856 5.834 73.4436 5.834C74.1696 5.834 74.8296 5.922 75.7536 6.076ZM72.7616 11.774C72.5856 12.104 73.2236 12.412 73.5096 12.016C74.1256 11.18 74.2136 9.97 74.2576 8.892C74.2576 8.364 73.5536 8.386 73.5316 8.76C73.4656 9.816 73.2676 10.74 72.7616 11.774ZM72.5856 21.322C72.4316 21.674 73.0476 21.96 73.3116 21.564C73.9056 20.728 74.0376 19.518 74.0816 18.462C74.0816 17.956 73.3556 17.956 73.3336 18.33C73.2676 19.386 73.1136 20.288 72.5856 21.322Z"/>
</mask>
<path d="M9.63177 20.134C3.55977 20.134 0.875766 16.46 0.875766 10.542C0.875766 4.624 3.18577 0.949999 9.63177 0.949999C16.0998 0.949999 18.3878 4.624 18.3878 10.542C18.3878 16.46 15.7038 20.134 9.63177 20.134ZM8.83977 11.972C8.61977 12.28 9.30177 12.588 9.58777 12.214C10.2038 11.334 10.3578 10.146 10.3798 9.046C10.4018 8.54 9.63177 8.562 9.60977 8.914C9.54377 9.992 9.34577 10.916 8.83977 11.972ZM21.3261 12.632C20.0721 12.544 19.5001 11.598 19.5001 10.366C19.5001 9.31 20.0721 8.298 21.3261 8.408C23.7681 8.606 25.7261 8.65 28.1681 8.408C29.4441 8.276 30.0161 9.31 30.0161 10.366C30.0161 11.598 29.4441 12.544 28.1461 12.632C25.7261 12.83 23.7681 12.83 21.3261 12.632ZM37.0873 6.582C36.3613 7.33 35.8553 8.342 35.7673 9.398C35.7013 9.926 36.1633 9.992 36.2733 9.53C36.8453 6.912 38.1873 5.9 40.2113 6.054C42.0373 6.186 42.6532 8.078 42.6313 9.31C42.6313 10.476 42.3673 12.522 40.2333 12.852C39.5293 12.962 38.7153 12.654 38.0333 12.104C37.7033 11.818 37.5273 12.104 37.5273 12.478C37.4833 14.062 37.3953 15.668 37.2413 17.23C37.0653 18.88 36.1633 20.178 34.3373 20.178C32.4673 20.178 31.5433 18.88 31.4113 17.23C31.1693 14.018 31.2793 10.828 31.3233 7.616C31.3453 6.89 31.7193 6.296 32.2913 6.208C32.7533 6.12 33.3913 6.076 34.0733 6.076C35.3493 6.076 36.6913 6.274 37.0873 6.582ZM46.8243 7.066C45.3283 7.066 43.9423 5.966 43.9423 4.008C43.9423 2.182 45.3503 0.949999 46.8243 0.949999C48.4303 0.949999 49.7063 2.49 49.7063 4.074C49.7063 5.702 48.4963 7.066 46.8243 7.066ZM43.8763 18.132C43.4583 15.536 43.4583 12.654 43.8763 10.058C44.0303 9.046 44.9543 8.21 46.8243 8.21C48.6283 8.21 49.5303 9.046 49.7063 10.058C50.1463 12.654 50.1463 15.536 49.7063 18.132C49.5303 19.166 48.6283 19.98 46.8243 19.98C44.9543 19.98 44.0303 19.166 43.8763 18.132ZM57.7875 15.91C57.7435 16.372 57.7215 16.812 57.6775 17.252C57.5015 18.902 56.5995 19.98 54.7735 19.98C52.9035 19.98 51.9355 18.902 51.7595 17.252C51.6055 15.8 51.5395 14.106 51.4955 12.654V8.716C51.4955 7.132 52.5515 6.076 54.1355 6.076C55.3895 6.076 56.6655 6.428 57.1275 7.418C55.9835 8.804 55.4115 10.41 55.5875 12.126C55.6535 12.654 56.2475 12.61 56.2255 12.17C56.0495 9.926 57.2815 7.572 58.7115 6.714C59.3495 6.34 60.0535 6.076 60.7795 6.076C61.9895 6.076 63.2435 6.472 64.0575 7.374C65.2895 8.716 65.3775 10.322 65.3555 12.082C65.3335 13.732 65.1795 15.712 64.8275 17.252C64.4535 18.902 63.6175 19.98 61.7035 19.98C59.7675 19.98 58.7775 18.902 58.5795 17.252C58.5355 16.878 58.4915 16.482 58.4695 16.086C58.4695 15.536 57.9415 15.47 57.7875 15.91ZM75.7536 6.076L76.8976 5.02C77.7996 4.184 78.9436 4.36 79.7576 5.328C80.5276 6.274 80.5276 7.33 79.7136 8.232L79.4716 8.518C79.4496 8.782 79.9556 9.068 79.9556 10.784C79.9556 12.808 79.2296 14.876 77.2936 15.844C76.3036 15.448 75.1376 15.162 73.7076 15.14C73.1576 15.14 73.1136 15.756 73.6636 15.756C78.1956 15.976 80.2196 18.484 79.7356 20.772C79.3176 22.708 77.0296 24.49 72.8936 24.49C68.5156 24.49 66.5796 22.554 66.2276 20.398C65.9416 18.528 66.8216 16.46 68.4276 15.25C66.8656 14.304 66.2056 12.258 66.6456 10.322C67.1516 8.012 69.2856 5.834 73.4436 5.834C74.1696 5.834 74.8296 5.922 75.7536 6.076ZM72.7616 11.774C72.5856 12.104 73.2236 12.412 73.5096 12.016C74.1256 11.18 74.2136 9.97 74.2576 8.892C74.2576 8.364 73.5536 8.386 73.5316 8.76C73.4656 9.816 73.2676 10.74 72.7616 11.774ZM72.5856 21.322C72.4316 21.674 73.0476 21.96 73.3116 21.564C73.9056 20.728 74.0376 19.518 74.0816 18.462C74.0816 17.956 73.3556 17.956 73.3336 18.33C73.2676 19.386 73.1136 20.288 72.5856 21.322Z" fill="white"/>
<path d="M8.83977 11.972L9.6535 12.5532L9.70402 12.4825L9.74158 12.4041L8.83977 11.972ZM9.58777 12.214L10.3821 12.8214L10.3949 12.8047L10.407 12.7875L9.58777 12.214ZM10.3798 9.046L9.38071 9.00256L9.3802 9.01428L9.37997 9.026L10.3798 9.046ZM9.60977 8.914L8.61171 8.85162L8.61164 8.85289L9.60977 8.914ZM9.63177 19.134C6.8041 19.134 4.92612 18.2865 3.73407 16.9042C2.51906 15.4952 1.87577 13.3692 1.87577 10.542H-0.124234C-0.124234 13.6328 0.574475 16.3028 2.21946 18.2103C3.88741 20.1445 6.38743 21.134 9.63177 21.134V19.134ZM1.87577 10.542C1.87577 7.68392 2.43867 5.56482 3.60442 4.16731C4.73926 2.80686 6.60016 1.95 9.63177 1.95V-0.0500007C6.21737 -0.0500007 3.70027 0.930135 2.06861 2.88619C0.467862 4.80517 -0.124234 7.48208 -0.124234 10.542H1.87577ZM9.63177 1.95C12.6754 1.95 14.5352 2.80741 15.6667 4.16656C16.8296 5.56342 17.3878 7.68206 17.3878 10.542H19.3878C19.3878 7.48394 18.8019 4.80658 17.2038 2.88694C15.5743 0.929585 13.0561 -0.0500007 9.63177 -0.0500007V1.95ZM17.3878 10.542C17.3878 13.3692 16.7445 15.4952 15.5295 16.9042C14.3374 18.2865 12.4594 19.134 9.63177 19.134V21.134C12.8761 21.134 15.3761 20.1445 17.0441 18.2103C18.6891 16.3028 19.3878 13.6328 19.3878 10.542H17.3878ZM8.02603 11.3908C7.74205 11.7883 7.72697 12.2841 7.95288 12.6841C8.13878 13.0133 8.43444 13.1934 8.66504 13.2821C9.11013 13.4533 9.88426 13.4725 10.3821 12.8214L8.79341 11.6066C9.00528 11.3295 9.29541 11.3817 9.383 11.4154C9.43484 11.4353 9.58338 11.5041 9.69434 11.7006C9.7559 11.8096 9.80453 11.9597 9.79578 12.1358C9.78695 12.3135 9.72272 12.4563 9.6535 12.5532L8.02603 11.3908ZM10.407 12.7875C11.2042 11.6486 11.3569 10.1995 11.3796 9.066L9.37997 9.026C9.35864 10.0925 9.20332 11.0194 8.76853 11.6405L10.407 12.7875ZM11.3788 9.08944C11.3965 8.68231 11.2453 8.29794 10.9472 8.02495C10.6755 7.77612 10.3497 7.67988 10.0825 7.66079C9.81719 7.64184 9.51323 7.69119 9.23908 7.8509C8.94983 8.01941 8.64286 8.35334 8.61171 8.85162L10.6078 8.97638C10.5877 9.29866 10.3852 9.49784 10.2458 9.57903C10.1216 9.65143 10.0128 9.66091 9.94002 9.65571C9.86533 9.65037 9.72925 9.6215 9.59643 9.49986C9.43723 9.35406 9.37401 9.15669 9.38071 9.00256L11.3788 9.08944ZM8.61164 8.85289C8.55218 9.82406 8.37947 10.6184 7.93795 11.5399L9.74158 12.4041C10.3121 11.2136 10.5354 10.1599 10.6079 8.97511L8.61164 8.85289ZM21.3261 12.632L21.407 11.6352L21.3961 11.6345L21.3261 12.632ZM21.3261 8.408L21.2388 9.4042L21.2453 9.40473L21.3261 8.408ZM28.1681 8.408L28.2668 9.40313L28.271 9.40269L28.1681 8.408ZM28.1461 12.632L28.0785 11.6342L28.0646 11.6353L28.1461 12.632ZM21.3961 11.6345C21.0329 11.609 20.8546 11.4776 20.7442 11.3298C20.6119 11.1525 20.5001 10.841 20.5001 10.366H18.5001C18.5001 11.123 18.6744 11.9005 19.1416 12.5262C19.6307 13.1814 20.3654 13.567 21.2561 13.6295L21.3961 11.6345ZM20.5001 10.366C20.5001 9.99827 20.6026 9.72458 20.7209 9.57795C20.805 9.4739 20.933 9.37736 21.2388 9.40417L21.4135 7.41183C20.4653 7.32864 19.6803 7.6831 19.1648 8.32155C18.6837 8.91742 18.5001 9.67773 18.5001 10.366H20.5001ZM21.2453 9.40473C23.727 9.60595 25.748 9.65273 28.2668 9.40312L28.0695 7.41287C25.7043 7.64727 23.8093 7.60605 21.407 7.41127L21.2453 9.40473ZM28.271 9.40269C28.4465 9.38454 28.5543 9.40995 28.6182 9.43595C28.6817 9.46183 28.7389 9.50333 28.7931 9.57037C28.913 9.71861 29.0161 9.99681 29.0161 10.366H31.0161C31.0161 9.67919 30.8332 8.91238 30.3482 8.31263C29.8261 7.66719 29.0287 7.31364 28.0652 7.41331L28.271 9.40269ZM29.0161 10.366C29.0161 10.8412 28.9044 11.1484 28.7718 11.3228C28.6612 11.4682 28.4739 11.6075 28.0785 11.6343L28.2138 13.6297C29.1164 13.5685 29.864 13.1908 30.3639 12.5332C30.8419 11.9046 31.0161 11.1228 31.0161 10.366H29.0161ZM28.0646 11.6353C25.6991 11.8289 23.7954 11.8289 21.407 11.6353L21.2453 13.6287C23.7409 13.8311 25.7532 13.8311 28.2277 13.6287L28.0646 11.6353ZM37.0872 6.582L37.8048 7.27847L38.582 6.47773L37.7012 5.79265L37.0872 6.582ZM35.7673 9.398L36.7595 9.52203L36.7621 9.50158L36.7638 9.48104L35.7673 9.398ZM36.2733 9.53L37.2461 9.76162L37.2482 9.75255L37.2502 9.74345L36.2733 9.53ZM40.2113 6.054L40.1354 7.05112L40.1391 7.0514L40.2113 6.054ZM42.6312 9.31L41.6314 9.29215L41.6312 9.30107V9.31H42.6312ZM40.2332 12.852L40.0804 11.8637L40.0789 11.864L40.2332 12.852ZM38.0332 12.104L37.3783 12.8597L37.3917 12.8713L37.4055 12.8824L38.0332 12.104ZM37.5273 12.478L38.5269 12.5058L38.5273 12.4919V12.478H37.5273ZM37.2412 17.23L38.2356 17.3361L38.2364 17.3281L37.2412 17.23ZM31.4112 17.23L30.4141 17.3051L30.4144 17.3097L31.4112 17.23ZM31.3232 7.616L30.3237 7.58571L30.3235 7.594L30.3233 7.6023L31.3232 7.616ZM32.2912 6.208L32.4433 7.19637L32.4609 7.19367L32.4784 7.19034L32.2912 6.208ZM36.3697 5.88552C35.501 6.78052 34.88 8.00322 34.7707 9.31495L36.7638 9.48104C36.8305 8.68078 37.2215 7.87948 37.8048 7.27847L36.3697 5.88552ZM34.775 9.27396C34.7183 9.72711 34.8504 10.6302 35.7539 10.815C36.6562 10.9995 37.1358 10.2246 37.2461 9.76162L35.3004 9.29838C35.3091 9.262 35.3466 9.14267 35.48 9.02595C35.6184 8.90489 35.8617 8.7956 36.1546 8.85553C36.4494 8.91583 36.6259 9.11251 36.7016 9.26759C36.7731 9.41402 36.76 9.51808 36.7595 9.52203L34.775 9.27396ZM37.2502 9.74345C37.5105 8.55213 37.9143 7.88083 38.3454 7.51444C38.7544 7.16676 39.3122 6.98848 40.1354 7.05112L40.2871 5.05688C39.0863 4.96552 37.9611 5.21624 37.0501 5.99056C36.1612 6.74617 35.608 7.88987 35.2963 9.31655L37.2502 9.74345ZM40.1391 7.0514C40.6594 7.089 41.0039 7.35531 41.2529 7.77748C41.5212 8.23241 41.6398 8.82339 41.6314 9.29215L43.6311 9.32785C43.6447 8.56461 43.4663 7.59359 42.9756 6.76151C42.4656 5.89669 41.5891 5.151 40.2834 5.0566L40.1391 7.0514ZM41.6312 9.31C41.6312 9.84174 41.5667 10.4669 41.3297 10.9644C41.1203 11.404 40.7793 11.7557 40.0804 11.8637L40.3861 13.8403C41.8212 13.6183 42.6792 12.782 43.1353 11.8246C43.5638 10.9251 43.6312 9.94426 43.6312 9.31H41.6312ZM40.0789 11.864C39.7525 11.915 39.216 11.7732 38.661 11.3256L37.4055 12.8824C38.2145 13.5348 39.306 14.009 40.3876 13.84L40.0789 11.864ZM38.6882 11.3483C38.5247 11.2066 38.2707 11.0368 37.9343 10.9963C37.5494 10.9501 37.2029 11.0909 36.9611 11.3249C36.7493 11.5298 36.649 11.7716 36.5992 11.9439C36.5463 12.127 36.5273 12.3112 36.5273 12.478H38.5273C38.5273 12.4578 38.5302 12.466 38.5206 12.4992C38.5141 12.5217 38.4784 12.6397 38.3519 12.7621C38.1953 12.9136 37.9548 13.0132 37.6956 12.982C37.5869 12.969 37.5061 12.9361 37.4574 12.9109C37.4092 12.886 37.3832 12.8639 37.3783 12.8597L38.6882 11.3483ZM36.5276 12.4502C36.4841 14.0168 36.3972 15.5986 36.2461 17.1319L38.2364 17.3281C38.3933 15.7374 38.4824 14.1072 38.5269 12.5058L36.5276 12.4502ZM36.2469 17.1239C36.1737 17.8104 35.9583 18.3262 35.6634 18.6553C35.3918 18.9583 34.9885 19.178 34.3372 19.178V21.178C35.512 21.178 36.4727 20.7487 37.1526 19.9902C37.8092 19.2578 38.1328 18.2996 38.2356 17.3361L36.2469 17.1239ZM34.3372 19.178C33.6545 19.178 33.2358 18.9516 32.9633 18.651C32.6702 18.3278 32.4618 17.8225 32.4081 17.1503L30.4144 17.3097C30.4927 18.2875 30.8123 19.2562 31.4817 19.9945C32.1717 20.7554 33.15 21.178 34.3372 21.178V19.178ZM32.4084 17.1549C32.1707 13.9999 32.2788 10.8712 32.3232 7.6297L30.3233 7.6023C30.2797 10.7848 30.1678 14.0361 30.4141 17.3051L32.4084 17.1549ZM32.3228 7.64629C32.3291 7.43842 32.3854 7.29851 32.4316 7.22956C32.4726 7.16849 32.4816 7.19049 32.4433 7.19637L32.1392 5.21963C30.8806 5.41326 30.3527 6.62748 30.3237 7.58571L32.3228 7.64629ZM32.4784 7.19034C32.8536 7.11886 33.4219 7.076 34.0732 7.076V5.076C33.3606 5.076 32.6529 5.12114 32.1041 5.22566L32.4784 7.19034ZM34.0732 7.076C34.665 7.076 35.2656 7.12229 35.7507 7.20069C35.9938 7.23998 36.1909 7.28463 36.3351 7.32892C36.5016 7.38007 36.5197 7.40745 36.4733 7.37135L37.7012 5.79265C37.4568 5.60255 37.1587 5.48968 36.9223 5.41708C36.6636 5.33762 36.3712 5.27502 36.0698 5.22631C35.4659 5.12871 34.7575 5.076 34.0732 5.076V7.076ZM43.8763 18.132L44.8655 17.9847L44.8636 17.973L43.8763 18.132ZM43.8763 10.058L44.8636 10.217L44.8649 10.2084L43.8763 10.058ZM49.7063 10.058L50.6923 9.89089L50.6915 9.88666L49.7063 10.058ZM49.7063 18.132L50.6921 18.2998L50.6923 18.2991L49.7063 18.132ZM46.8243 6.066C45.8558 6.066 44.9423 5.38926 44.9423 4.008H42.9423C42.9423 6.54274 44.8008 8.066 46.8243 8.066V6.066ZM44.9423 4.008C44.9423 2.73428 45.9026 1.95 46.8243 1.95V-0.0500007C44.798 -0.0500007 42.9423 1.62971 42.9423 4.008H44.9423ZM46.8243 1.95C47.7731 1.95 48.7063 2.93121 48.7063 4.074H50.7063C50.7063 2.04878 49.0875 -0.0500007 46.8243 -0.0500007V1.95ZM48.7063 4.074C48.7063 5.20953 47.8861 6.066 46.8243 6.066V8.066C49.1066 8.066 50.7063 6.19447 50.7063 4.074H48.7063ZM44.8636 17.973C44.4626 15.4823 44.4626 12.7077 44.8636 10.217L42.889 9.89903C42.4541 12.6003 42.4541 15.5897 42.889 18.291L44.8636 17.973ZM44.8649 10.2084C44.9007 9.97341 45.0193 9.75465 45.2765 9.57635C45.5486 9.38776 46.0309 9.21 46.8243 9.21V7.21C45.7477 7.21 44.833 7.45024 44.1371 7.93264C43.4263 8.42535 43.0059 9.13059 42.8877 9.90756L44.8649 10.2084ZM46.8243 9.21C47.5769 9.21 48.0351 9.3842 48.2973 9.57015C48.5482 9.74814 48.6769 9.97503 48.7211 10.2293L50.6915 9.88666C50.5598 9.12897 50.1494 8.43186 49.4544 7.93885C48.7705 7.4538 47.8757 7.21 46.8243 7.21V9.21ZM48.7204 10.2251C49.1416 12.7105 49.1416 15.4795 48.7204 17.9649L50.6923 18.2991C51.151 15.5925 51.151 12.5975 50.6923 9.89089L48.7204 10.2251ZM48.7205 17.9642C48.6752 18.2301 48.546 18.4531 48.3004 18.6259C48.0405 18.8087 47.5825 18.98 46.8243 18.98V20.98C47.8701 20.98 48.7652 20.7443 49.4512 20.2616C50.1516 19.7689 50.5614 19.0679 50.6921 18.2998L48.7205 17.9642ZM46.8243 18.98C46.0254 18.98 45.5434 18.8054 45.2733 18.6197C45.0216 18.4467 44.9022 18.2317 44.8654 17.9847L42.8872 18.2793C43.0044 19.0663 43.424 19.7753 44.1403 20.2678C44.8383 20.7476 45.7532 20.98 46.8243 20.98V18.98ZM57.7875 15.91L56.8437 15.5796L56.8036 15.6943L56.792 15.8152L57.7875 15.91ZM57.6775 17.252L58.6719 17.3581L58.6726 17.3515L57.6775 17.252ZM51.7595 17.252L50.7651 17.3575L50.7652 17.3581L51.7595 17.252ZM51.4955 12.654H50.4955V12.6691L50.496 12.6843L51.4955 12.654ZM57.1275 7.418L57.8988 8.05456L58.3008 7.56746L58.0337 6.99511L57.1275 7.418ZM55.5875 12.126L54.5928 12.228L54.5939 12.239L54.5953 12.25L55.5875 12.126ZM56.2255 12.17L57.2243 12.1201L57.2236 12.1059L57.2225 12.0918L56.2255 12.17ZM58.7115 6.714L58.2058 5.85126L58.197 5.85651L58.7115 6.714ZM64.0575 7.374L63.3151 8.04399L63.3209 8.05027L64.0575 7.374ZM65.3555 12.082L66.3554 12.0953L66.3555 12.0945L65.3555 12.082ZM64.8275 17.252L63.8527 17.0292L63.8523 17.0309L64.8275 17.252ZM58.5795 17.252L57.5864 17.3688L57.5867 17.3711L58.5795 17.252ZM58.4695 16.086H57.4695V16.1138L57.4711 16.1415L58.4695 16.086ZM56.792 15.8152C56.7689 16.0586 56.7516 16.295 56.7353 16.5154C56.7187 16.7394 56.703 16.9471 56.6825 17.1525L58.6726 17.3515C58.696 17.1169 58.7134 16.8846 58.7298 16.6631C58.7465 16.438 58.7622 16.2234 58.783 16.0048L56.792 15.8152ZM56.6832 17.1459C56.6108 17.8245 56.4019 18.2629 56.1372 18.5276C55.8874 18.7775 55.4811 18.98 54.7735 18.98V20.98C55.892 20.98 56.8497 20.6435 57.5514 19.9419C58.2382 19.2551 58.5683 18.3295 58.6719 17.3581L56.6832 17.1459ZM54.7735 18.98C54.0363 18.98 53.5949 18.7724 53.3222 18.5118C53.0407 18.2428 52.8244 17.8069 52.7539 17.1459L50.7652 17.3581C50.8707 18.3471 51.2264 19.2752 51.9403 19.9577C52.6632 20.6486 53.6407 20.98 54.7735 20.98V18.98ZM52.754 17.1465C52.6043 15.7359 52.5391 14.0757 52.4951 12.6237L50.496 12.6843C50.54 14.1363 50.6067 15.8641 50.7651 17.3575L52.754 17.1465ZM52.4955 12.654V8.716H50.4955V12.654H52.4955ZM52.4955 8.716C52.4955 8.15125 52.6794 7.75833 52.9286 7.50911C53.1779 7.25988 53.5708 7.076 54.1355 7.076V5.076C53.1163 5.076 52.1892 5.42011 51.5144 6.09489C50.8396 6.76967 50.4955 7.69675 50.4955 8.716H52.4955ZM54.1355 7.076C54.6807 7.076 55.1788 7.15407 55.5596 7.30521C55.9348 7.45414 56.1295 7.644 56.2213 7.84089L58.0337 6.99511C57.6636 6.202 56.9892 5.72085 56.2974 5.44628C55.6112 5.17392 54.8443 5.076 54.1355 5.076V7.076ZM56.3563 6.78143C55.0695 8.34051 54.3853 10.2058 54.5928 12.228L56.5823 12.024C56.4377 10.6142 56.8976 9.26749 57.8988 8.05456L56.3563 6.78143ZM54.5953 12.25C54.6791 12.9211 55.1925 13.511 55.9395 13.511C56.2792 13.511 56.6241 13.376 56.8772 13.1035C57.1371 12.8235 57.2415 12.4641 57.2243 12.1201L55.2268 12.2199C55.2206 12.0959 55.2589 11.907 55.4116 11.7425C55.5575 11.5855 55.7539 11.511 55.9395 11.511C56.1278 11.511 56.298 11.5858 56.4176 11.7028C56.5392 11.8219 56.5729 11.9465 56.5798 12.002L54.5953 12.25ZM57.2225 12.0918C57.1502 11.1708 57.3675 10.1959 57.7692 9.35208C58.1765 8.49654 58.7267 7.87106 59.226 7.57149L58.197 5.85651C57.2663 6.41494 56.4856 7.39546 55.9634 8.49241C55.4356 9.60112 55.1248 10.9252 55.2286 12.2482L57.2225 12.0918ZM59.2173 7.5767C59.7662 7.25489 60.2934 7.076 60.7795 7.076V5.076C59.8136 5.076 58.9329 5.4251 58.2058 5.8513L59.2173 7.5767ZM60.7795 7.076C61.8009 7.076 62.7459 7.41322 63.3151 8.04396L64.7999 6.70404C63.7411 5.53078 62.1781 5.076 60.7795 5.076V7.076ZM63.3209 8.05027C64.2637 9.07725 64.3776 10.3112 64.3556 12.0695L66.3555 12.0945C66.3775 10.3328 66.3154 8.35475 64.7942 6.69773L63.3209 8.05027ZM64.3556 12.0687C64.3341 13.6838 64.1826 15.5857 63.8527 17.0292L65.8024 17.4748C66.1764 15.8383 66.333 13.7802 66.3554 12.0953L64.3556 12.0687ZM63.8523 17.0309C63.6867 17.7616 63.4467 18.2287 63.1501 18.5138C62.879 18.7743 62.4596 18.98 61.7035 18.98V20.98C62.8615 20.98 63.8171 20.6467 64.536 19.9557C65.2294 19.2893 65.5944 18.3924 65.8028 17.4731L63.8523 17.0309ZM61.7035 18.98C60.9248 18.98 60.4571 18.7673 60.1689 18.5007C59.8743 18.2282 59.6515 17.7918 59.5724 17.1329L57.5867 17.3711C57.7056 18.3622 58.0768 19.2898 58.8107 19.9688C59.551 20.6537 60.5463 20.98 61.7035 20.98V18.98ZM59.5727 17.1352C59.5289 16.7626 59.4881 16.3932 59.468 16.0305L57.4711 16.1415C57.4949 16.5708 57.5422 16.9934 57.5864 17.3688L59.5727 17.1352ZM59.4695 16.086C59.4695 15.5006 59.1469 14.7991 58.3824 14.6462C57.6318 14.496 57.0453 15.0037 56.8437 15.5796L58.7314 16.2404C58.6838 16.3763 58.4383 16.697 57.9902 16.6073C57.5282 16.5149 57.4695 16.1214 57.4695 16.086H59.4695ZM75.7536 6.076L75.5892 7.06239L76.0722 7.14288L76.4319 6.8108L75.7536 6.076ZM76.8976 5.02L77.5759 5.7548L77.5774 5.75343L76.8976 5.02ZM79.7576 5.328L80.5332 4.69673L80.5281 4.69052L80.523 4.6844L79.7576 5.328ZM79.7136 8.232L78.9712 7.56203L78.9605 7.57388L78.9502 7.58606L79.7136 8.232ZM79.4716 8.518L78.7082 7.87206L78.5016 8.11622L78.4751 8.43495L79.4716 8.518ZM77.2936 15.844L76.9222 16.7725L77.3392 16.9393L77.7408 16.7384L77.2936 15.844ZM73.7076 15.14L73.723 14.1401L73.7153 14.14H73.7076V15.14ZM73.6636 15.756L73.7121 14.7572L73.6879 14.756H73.6636V15.756ZM79.7356 20.772L80.7131 20.983L80.714 20.979L79.7356 20.772ZM66.2276 20.398L65.2391 20.5492L65.2407 20.5591L66.2276 20.398ZM68.4276 15.25L69.0294 16.0487L70.2091 15.1598L68.9457 14.3946L68.4276 15.25ZM66.6456 10.322L67.6208 10.5436L67.6225 10.536L66.6456 10.322ZM72.7616 11.774L73.644 12.2446L73.6522 12.2292L73.6598 12.2136L72.7616 11.774ZM73.5096 12.016L72.7045 11.4228L72.6989 11.4305L73.5096 12.016ZM74.2576 8.892L75.2568 8.93278L75.2576 8.9124V8.892H74.2576ZM73.5316 8.76L74.5297 8.82238L74.5299 8.81872L73.5316 8.76ZM72.5856 21.322L71.695 20.8672L71.6814 20.8938L71.6695 20.9212L72.5856 21.322ZM73.3116 21.564L72.4964 20.9848L72.4878 20.9969L72.4796 21.0093L73.3116 21.564ZM74.0816 18.462L75.0808 18.5036L75.0816 18.4828V18.462H74.0816ZM73.3336 18.33L74.3317 18.3924L74.3319 18.3887L73.3336 18.33ZM76.4319 6.8108L77.5759 5.7548L76.2193 4.2852L75.0753 5.3412L76.4319 6.8108ZM77.5774 5.75343C77.8365 5.51323 78.0625 5.46874 78.2406 5.49027C78.4375 5.51407 78.7112 5.63734 78.9923 5.9716L80.523 4.6844C79.9901 4.05066 79.2848 3.60193 78.4806 3.50473C77.6578 3.40526 76.8607 3.69077 76.2179 4.28657L77.5774 5.75343ZM78.9821 5.95927C79.2516 6.29047 79.3321 6.57049 79.3297 6.78539C79.3273 6.99588 79.2446 7.25912 78.9712 7.56203L80.456 8.90196C80.9967 8.30288 81.3209 7.58712 81.3296 6.80761C81.3382 6.03251 81.0336 5.31153 80.5332 4.69673L78.9821 5.95927ZM78.9502 7.58606L78.7082 7.87206L80.235 9.16394L80.477 8.87794L78.9502 7.58606ZM78.4751 8.43495C78.4435 8.81401 78.6096 9.1199 78.6395 9.18115C78.6988 9.30244 78.7311 9.36004 78.7731 9.46817C78.8456 9.65509 78.9556 10.0304 78.9556 10.784H80.9556C80.9556 9.82162 80.8127 9.1959 80.6377 8.74483C80.5559 8.53396 80.4659 8.36331 80.4364 8.3031C80.3777 8.18285 80.4888 8.35399 80.4682 8.60104L78.4751 8.43495ZM78.9556 10.784C78.9556 12.6164 78.3036 14.221 76.8464 14.9496L77.7408 16.7384C80.1557 15.531 80.9556 12.9996 80.9556 10.784H78.9556ZM77.665 14.9155C76.5713 14.478 75.2849 14.1641 73.723 14.1401L73.6922 16.1399C74.9903 16.1599 76.036 16.418 76.9222 16.7725L77.665 14.9155ZM73.7076 14.14C73.0591 14.14 72.3339 14.5611 72.2757 15.3768C72.2482 15.7619 72.3987 16.1408 72.6948 16.4054C72.9848 16.6646 73.3433 16.756 73.6636 16.756V14.756C73.7089 14.756 73.8667 14.7704 74.0275 14.9141C74.1943 15.0632 74.2871 15.2881 74.2706 15.5192C74.2343 16.0269 73.8062 16.14 73.7076 16.14V14.14ZM73.6151 16.7548C75.7145 16.8567 77.1052 17.4825 77.8999 18.221C78.6822 18.9481 78.9191 19.8002 78.7573 20.565L80.714 20.979C81.0362 19.4558 80.503 17.9099 79.2614 16.756C78.032 15.6135 76.1447 14.8753 73.7121 14.7572L73.6151 16.7548ZM78.7581 20.561C78.4847 21.8275 76.8123 23.49 72.8936 23.49V25.49C77.2469 25.49 80.1506 23.5885 80.7131 20.983L78.7581 20.561ZM72.8936 23.49C70.8447 23.49 69.4853 23.0366 68.6248 22.4336C67.7788 21.8408 67.3489 21.0595 67.2146 20.2369L65.2407 20.5591C65.4584 21.8925 66.1724 23.1572 67.477 24.0714C68.7669 24.9754 70.5646 25.49 72.8936 25.49V23.49ZM67.2161 20.2468C66.9896 18.7658 67.6961 17.0532 69.0294 16.0487L67.8259 14.4513C65.9471 15.8668 64.8936 18.2902 65.2391 20.5492L67.2161 20.2468ZM68.9457 14.3946C67.8387 13.7242 67.2516 12.1677 67.6208 10.5436L65.6705 10.1004C65.1596 12.3483 65.8925 14.8838 67.9096 16.1054L68.9457 14.3946ZM67.6225 10.536C68.0149 8.74446 69.6917 6.834 73.4436 6.834V4.834C68.8796 4.834 66.2884 7.27954 65.6688 10.108L67.6225 10.536ZM73.4436 6.834C74.0834 6.834 74.6762 6.91022 75.5892 7.06239L75.918 5.0896C74.983 4.93377 74.2559 4.834 73.4436 4.834V6.834ZM71.8793 11.3034C71.663 11.7088 71.697 12.1554 71.8961 12.5033C72.0727 12.8121 72.3475 12.9991 72.5935 13.0967C73.0865 13.2924 73.8479 13.2556 74.3203 12.6015L72.6989 11.4305C72.8853 11.1724 73.1847 11.1796 73.3312 11.2378C73.404 11.2666 73.5344 11.3395 73.632 11.5101C73.752 11.7198 73.7722 12.0042 73.644 12.2446L71.8793 11.3034ZM74.3147 12.6092C75.1412 11.4875 75.215 9.95628 75.2568 8.93278L73.2585 8.85122C73.2122 9.98372 73.11 10.8725 72.7046 11.4228L74.3147 12.6092ZM75.2576 8.892C75.2576 8.52281 75.1272 8.16173 74.8544 7.88892C74.5953 7.62979 74.2708 7.5131 73.9796 7.49069C73.6939 7.46872 73.3745 7.53193 73.0968 7.71845C72.799 7.91846 72.5593 8.26082 72.5333 8.70128L74.5299 8.81872C74.515 9.07218 74.3715 9.27154 74.2119 9.37873C74.0724 9.47244 73.9331 9.49303 73.8262 9.4848C73.7137 9.47615 73.5666 9.42959 73.4402 9.30314C73.3 9.16301 73.2576 8.99719 73.2576 8.892H75.2576ZM72.5336 8.69762C72.4742 9.64769 72.3016 10.4391 71.8634 11.3344L73.6598 12.2136C74.2337 11.0409 74.4571 9.98431 74.5297 8.82238L72.5336 8.69762ZM71.6695 20.9212C71.498 21.3131 71.5393 21.7298 71.7295 22.0615C71.9031 22.3642 72.1718 22.5542 72.4258 22.6541C72.9386 22.8558 73.6989 22.7859 74.1437 22.1187L72.4796 21.0093C72.6604 20.7381 72.9806 20.7232 73.158 20.7929C73.2442 20.8268 73.3713 20.9041 73.4644 21.0665C73.5742 21.258 73.5963 21.5069 73.5018 21.7228L71.6695 20.9212ZM74.1268 22.1432C74.9113 21.0391 75.0373 19.546 75.0808 18.5036L73.0825 18.4204C73.0379 19.49 72.8999 20.4169 72.4964 20.9848L74.1268 22.1432ZM75.0816 18.462C75.0816 18.0756 74.9339 17.715 74.6584 17.452C74.4005 17.2058 74.0847 17.095 73.8051 17.07C73.5303 17.0454 73.212 17.0965 72.9279 17.2748C72.6202 17.4681 72.3623 17.8138 72.3354 18.2713L74.3319 18.3887C74.316 18.6592 74.1571 18.8646 73.9916 18.9685C73.8499 19.0575 73.7172 19.0701 73.6267 19.062C73.5313 19.0535 73.3983 19.0142 73.2773 18.8986C73.1386 18.7662 73.0816 18.5954 73.0816 18.462H75.0816ZM72.3356 18.2676C72.2744 19.2459 72.1385 19.9988 71.695 20.8672L73.4762 21.7768C74.0888 20.5772 74.2608 19.5261 74.3317 18.3924L72.3356 18.2676Z" fill="black" mask="url(#path-1-outside-1_563_2701)"/>
</svg>
