<svg width="28" height="28" viewBox="0 0 28 28" fill="none" xmlns="http://www.w3.org/2000/svg">
<rect width="28" height="28" rx="14" fill="#F49E15"/>
<path d="M13.1459 14.8541L16.415 11.5849M19.7593 9.58977L16.9997 18.5582C16.7524 19.3619 16.6287 19.764 16.4154 19.8973C16.2304 20.0129 16.0013 20.0322 15.7998 19.9486C15.5675 19.8522 15.3789 19.4757 15.0027 18.7233L13.2549 15.2276C13.1952 15.1082 13.1653 15.0488 13.1254 14.9971C13.09 14.9512 13.0492 14.9098 13.0033 14.8744C12.9527 14.8354 12.8943 14.8062 12.7802 14.7492L9.27649 12.9973C8.52411 12.6211 8.14789 12.4329 8.05148 12.2005C7.96788 11.999 7.98694 11.7698 8.10254 11.5847C8.23583 11.3714 8.63786 11.2475 9.44184 11.0001L18.4103 8.24058C19.0424 8.0461 19.3585 7.94893 19.572 8.02731C19.758 8.09558 19.9046 8.24204 19.9728 8.428C20.0512 8.64139 19.9539 8.9574 19.7597 9.58883L19.7593 9.58977Z" stroke="white" stroke-width="2" stroke-linecap="round" stroke-linejoin="round"/>
</svg>
