<svg width="14" height="14" viewBox="0 0 14 14" fill="none" xmlns="http://www.w3.org/2000/svg">
<path d="M12.0119 5.1531L11.7921 5.03081C11.758 5.01182 11.7412 5.0023 11.7247 4.99242C11.5608 4.89423 11.4226 4.75857 11.3218 4.59626C11.3116 4.57993 11.3021 4.5628 11.2825 4.52895C11.263 4.49515 11.2531 4.47802 11.244 4.46106C11.1536 4.2922 11.1047 4.10402 11.1017 3.91249C11.1014 3.89324 11.1015 3.87357 11.1022 3.83445L11.1065 3.5792C11.1133 3.17072 11.1168 2.96585 11.0594 2.78199C11.0084 2.61868 10.9231 2.46825 10.8092 2.3406C10.6804 2.1963 10.5022 2.09336 10.1454 1.88773L9.84895 1.71693C9.49311 1.51187 9.31513 1.40931 9.12621 1.37021C8.95908 1.33562 8.7866 1.33722 8.62007 1.37461C8.43212 1.4168 8.25636 1.52203 7.90506 1.73239L7.90307 1.73334L7.69069 1.8605C7.65711 1.88061 7.64011 1.89075 7.62328 1.90011C7.45625 1.99297 7.26978 2.04432 7.07877 2.05045C7.05952 2.05107 7.03993 2.05107 7.00077 2.05107C6.96186 2.05107 6.94144 2.05107 6.92223 2.05045C6.7308 2.0443 6.54395 1.99267 6.37665 1.89942C6.35979 1.89002 6.34311 1.8798 6.30946 1.8596L6.09573 1.73129C5.74204 1.51894 5.56492 1.41261 5.37592 1.37021C5.20872 1.33269 5.03565 1.33166 4.8679 1.36669C4.6785 1.40625 4.50048 1.50958 4.14443 1.71622L4.14285 1.71693L3.85013 1.88681L3.84689 1.88879C3.49405 2.09358 3.3172 2.19622 3.18953 2.33993C3.07623 2.46745 2.99154 2.61764 2.94085 2.78052C2.88355 2.96464 2.88661 3.16995 2.89351 3.58035L2.8978 3.83524C2.89845 3.87384 2.89958 3.89302 2.8993 3.91201C2.89645 4.10393 2.84689 4.29249 2.75619 4.46165C2.74722 4.47838 2.73755 4.49511 2.71825 4.52852C2.69893 4.56196 2.68958 4.57859 2.67956 4.59473C2.57829 4.7579 2.4395 4.89436 2.27455 4.99271C2.25824 5.00244 2.24104 5.0118 2.20725 5.03052L1.99023 5.15079C1.62915 5.35089 1.44865 5.45102 1.31731 5.59353C1.20112 5.71959 1.11335 5.86913 1.05977 6.03198C0.999209 6.21608 0.99926 6.4225 1.0002 6.83532L1.00096 7.17273C1.0019 7.58279 1.00317 7.78768 1.06387 7.97053C1.11757 8.13229 1.20471 8.28094 1.32024 8.40625C1.45084 8.54788 1.62954 8.6474 1.98789 8.84675L2.20297 8.96641C2.23958 8.98677 2.258 8.99682 2.27565 9.00745C2.4391 9.10588 2.5768 9.24195 2.67722 9.40419C2.68806 9.42172 2.69848 9.43991 2.7193 9.47629C2.73987 9.51223 2.75039 9.53019 2.7599 9.5482C2.84794 9.71487 2.89508 9.90007 2.89829 10.0885C2.89864 10.1089 2.89834 10.1295 2.89764 10.1709L2.89351 10.4155C2.88656 10.8273 2.88353 11.0335 2.94116 11.2181C2.99215 11.3814 3.07737 11.5318 3.19128 11.6595C3.32005 11.8038 3.49856 11.9066 3.85541 12.1123L4.15175 12.283C4.5076 12.4881 4.68546 12.5905 4.87438 12.6296C5.04151 12.6642 5.21408 12.6629 5.38061 12.6255C5.56883 12.5832 5.74519 12.4776 6.09749 12.2667L6.30987 12.1395C6.34347 12.1194 6.36048 12.1093 6.37732 12.1C6.54435 12.0071 6.73063 11.9555 6.92164 11.9494C6.94089 11.9487 6.96047 11.9487 6.99963 11.9487C7.03888 11.9487 7.05844 11.9487 7.07773 11.9494C7.26916 11.9555 7.45658 12.0073 7.62387 12.1006C7.63859 12.1088 7.65334 12.1176 7.67923 12.1332L7.90501 12.2687C8.25876 12.4811 8.43549 12.5871 8.6245 12.6295C8.79171 12.667 8.96491 12.6686 9.13266 12.6335C9.32201 12.594 9.50039 12.4904 9.85624 12.2839L10.1534 12.1115C10.5064 11.9066 10.6835 11.8038 10.8112 11.6601C10.9245 11.5325 11.0093 11.3824 11.06 11.2195C11.1169 11.0367 11.1134 10.833 11.1066 10.4285L11.1022 10.1647C11.1015 10.1261 11.1014 10.1069 11.1017 10.088C11.1046 9.89604 11.1533 9.70734 11.244 9.53818C11.253 9.52148 11.2627 9.50462 11.282 9.47131C11.3013 9.43788 11.3113 9.42121 11.3213 9.40507C11.4226 9.2419 11.5615 9.10533 11.7264 9.00697C11.7426 8.99736 11.7592 8.98816 11.7921 8.96989L11.7933 8.96936L12.0103 8.8491C12.3714 8.649 12.5522 8.54875 12.6836 8.40625C12.7997 8.28018 12.8874 8.13086 12.941 7.968C13.0012 7.78499 13.0007 7.57976 12.9998 7.17177L12.999 6.82712C12.9981 6.41706 12.9976 6.21219 12.9369 6.02935C12.8832 5.86758 12.7956 5.71893 12.68 5.59362C12.5495 5.45212 12.3706 5.35257 12.0129 5.15361L12.0119 5.1531Z" stroke="black" stroke-linecap="round" stroke-linejoin="round"/>
<path d="M4.59925 7.00004C4.59925 8.32604 5.67419 9.40097 7.00019 9.40097C8.32619 9.40097 9.40112 8.32604 9.40112 7.00004C9.40112 5.67404 8.32619 4.5991 7.00019 4.5991C5.67419 4.5991 4.59925 5.67404 4.59925 7.00004Z" stroke="black" stroke-linecap="round" stroke-linejoin="round"/>
</svg>
